<svg xmlns="http://www.w3.org/2000/svg" version="1.0" width="600.000000" height="138.000000" preserveAspectRatio="xMidYMid meet"><rect id="backgroundrect" width="100%" height="100%" x="0" y="0" fill="none" stroke="none"/>
<metadata>
Created by potrace 1.15, written by Peter Selinger 2001-2017
</metadata>

<g class="currentLayer" style=""><title>Layer 1</title><g transform="translate(0,138) scale(0.10000000149011612,-0.10000000149011612) " fill="#5f2a7d" stroke="none" id="svg_1" class="selected" fill-opacity="1">
<path d="M4097 1060 c-61 -16 -110 -45 -158 -97 -89 -95 -143 -265 -137 -428 3 -79 7 -97 30 -132 45 -68 98 -87 255 -91 113 -3 143 -1 202 17 166 50 266 224 278 481 4 97 3 108 -19 150 -19 35 -37 52 -83 75 -56 29 -65 30 -194 32 -75 1 -153 -2 -174 -7z m245 -190 c28 -28 30 -34 23 -78 -11 -79 -45 -195 -71 -239 -14 -24 -39 -50 -56 -59 -41 -21 -154 -22 -195 -1 -52 27 -55 58 -18 195 48 180 80 212 208 212 74 0 80 -2 109 -30z" id="svg_2" fill="#5f2a7d"/>
<path d="M278 1050 c-50 -15 -87 -44 -108 -84 -23 -46 -170 -582 -170 -621 0 -24 2 -25 63 -25 44 0 71 6 94 20 36 22 39 28 123 343 30 110 59 197 65 197 8 0 15 -69 24 -221 7 -122 18 -238 24 -257 18 -53 56 -76 135 -80 86 -5 145 11 189 52 34 31 39 45 119 341 46 171 84 318 84 328 0 17 -7 19 -74 15 -80 -4 -109 -19 -128 -68 -5 -14 -37 -126 -70 -250 -56 -208 -71 -251 -82 -239 -2 2 -11 105 -19 229 -17 257 -26 292 -81 315 -38 16 -143 19 -188 5z" id="svg_3" fill="#5f2a7d"/>
<path d="M1105 1048 c-51 -18 -85 -48 -110 -98 -33 -65 -180 -609 -167 -622 5 -5 126 -8 295 -6 282 3 286 3 310 26 24 23 47 81 47 121 0 21 -2 21 -210 21 -232 0 -224 -3 -196 64 8 19 20 37 27 42 8 5 79 11 157 14 l144 5 28 32 c30 33 56 106 45 123 -4 6 -76 10 -175 10 l-169 0 11 33 c5 17 21 42 35 55 23 21 32 22 174 22 117 0 157 3 180 16 33 17 68 82 69 127 l0 27 -232 -1 c-137 0 -245 -5 -263 -11z" id="svg_4" fill="#5f2a7d"/>
<path d="M1684 1041 c-23 -14 -37 -34 -49 -71 -26 -79 -25 -80 120 -80 69 0 125 -3 125 -6 0 -3 -31 -122 -70 -264 -38 -142 -70 -268 -70 -279 0 -19 6 -21 59 -21 76 0 106 12 129 50 11 16 42 119 71 228 29 108 60 212 68 230 22 46 59 62 141 62 55 0 76 5 102 23 34 23 58 71 59 120 l1 27 -327 0 c-306 0 -330 -1 -359 -19z" id="svg_5" fill="#5f2a7d"/>
<path d="M2511 1045 c-82 -25 -130 -97 -131 -193 0 -94 26 -124 210 -237 69 -43 128 -83 132 -89 19 -29 -15 -35 -207 -38 -189 -3 -194 -4 -219 -27 -29 -27 -61 -120 -47 -134 5 -5 127 -7 272 -5 223 2 269 6 294 20 69 38 105 105 105 195 0 92 -16 108 -268 267 -52 33 -72 52 -70 64 3 15 23 18 190 22 181 5 187 6 212 29 26 25 61 116 50 132 -9 15 -472 10 -523 -6z" id="svg_6" fill="#5f2a7d"/>
<path d="M3171 1047 c-14 -6 -33 -26 -42 -42 -22 -38 -192 -662 -184 -675 10 -15 123 -12 155 5 20 10 34 31 49 70 12 31 21 60 21 65 0 5 9 34 21 65 29 77 47 85 204 85 94 0 125 -3 125 -13 0 -7 -16 -70 -35 -140 -19 -71 -33 -133 -30 -138 9 -14 123 -11 154 5 15 8 35 32 44 53 21 48 177 623 177 653 0 21 -3 22 -76 18 -68 -3 -79 -6 -100 -31 -13 -15 -33 -59 -45 -99 -26 -89 -42 -114 -81 -127 -36 -13 -254 -15 -262 -3 -3 5 8 56 24 113 43 151 43 149 -32 149 -35 0 -74 -6 -87 -13z" id="svg_7" fill="#5f2a7d"/>
<path d="M4828 1050 c-65 -19 -107 -61 -136 -135 -21 -53 -152 -545 -152 -571 l0 -24 280 0 c224 0 287 3 309 14 30 16 60 73 64 121 l2 30 -213 3 -212 2 6 28 c10 42 32 79 49 86 9 3 70 6 136 6 149 0 182 11 209 72 11 24 20 55 20 71 l0 27 -170 0 c-110 0 -170 4 -170 10 0 20 28 78 41 86 8 5 90 11 182 14 l169 5 28 32 c30 33 56 106 45 123 -7 12 -448 12 -487 0z" id="svg_8" fill="#5f2a7d"/>
<path d="M5515 1055 c-5 -2 -22 -6 -37 -9 -73 -16 -127 -103 -128 -204 0 -59 2 -65 39 -105 22 -23 98 -78 170 -122 104 -63 130 -84 128 -100 -2 -19 -11 -20 -199 -25 -190 -5 -197 -6 -222 -29 -27 -25 -62 -114 -51 -131 11 -17 481 -13 542 5 91 27 139 106 131 217 -4 52 -9 63 -40 95 -20 20 -94 73 -165 117 -183 116 -181 120 58 126 169 5 189 7 209 25 28 25 50 75 50 115 l0 30 -237 -1 c-131 0 -242 -2 -248 -4z" id="svg_9" fill="#5f2a7d"/>
</g></g></svg>